PathFileType	4	(X/Y/Z)	Patient4_TMGait_0pt7_02_right_23.trc.trc
DataRate	CameraRate	NumFrames	NumMarkers	Units	OrigDataRate	OrigDataStartFrame	OrigNumFrames
85.889570552147	85.889570552147	5	33	mm	85.889570552147	106	       141
Frame#	Time	Sacral			L.Shoulder			Chest			R.Shoulder			Neck			R.ASIS			L.ASIS			R.Thigh.Superior			R.Thigh.Lateral			R.Thigh.Inferior			R.Patella			L.Thigh.Superior			L.Thigh.Lateral			L.Thigh.Inferior			L.Patella			L.Shank.Superior			L.Shank.Lateral			L.Shank.Inferior			R.Shank.Superior			R.Shank.Lateral			R.Shank.Inferior			R.Heel			R.Midfoot.Superior			R.Midfoot.Lateral			R.Toe			L.Heel			L.Midfoot.Lateral			L.Midfoot.Superior			L.Toe			L.Elbow			L.Wrist			R.Elbow			R.Wrist			
		X1	Y1	Z1	X2	Y2	Z2	X3	Y3	Z3	X4	Y4	Z4	X5	Y5	Z5	X6	Y6	Z6	X7	Y7	Z7	X8	Y8	Z8	X9	Y9	Z9	X10	Y10	Z10	X11	Y11	Z11	X12	Y12	Z12	X13	Y13	Z13	X14	Y14	Z14	X15	Y15	Z15	X16	Y16	Z16	X17	Y17	Z17	X18	Y18	Z18	X19	Y19	Z19	X20	Y20	Z20	X21	Y21	Z21	X22	Y22	Z22	X23	Y23	Z23	X24	Y24	Z24	X25	Y25	Z25	X26	Y26	Z26	X27	Y27	Z27	X28	Y28	Z28	X29	Y29	Z29	X30	Y30	Z30	X31	Y31	Z31	X32	Y32	Z32	X33	Y33	Z33	

106	26.782500000000	841.744607948592	1017.808346159290	426.334314674531	1049.850696111320	1442.157832906096	261.281273475713	1141.628354132259	1366.871081657434	427.903741931547	1047.846428419828	1442.165978656673	596.804149642804	1041.034403838537	1499.924372856944	416.838427716820	1057.197550384910	952.504684364441	561.127786073279	1068.295626744616	965.501099812243	286.930854750683	1150.714476649883	798.553349223595	533.252779527529	1122.865917540897	675.513897822683	607.473949384410	1216.176401881458	642.719652288410	529.149989753701	1245.910619329019	531.798421155956	554.289269026305	1102.713417473281	748.334772812654	323.435308814813	1008.957503330407	637.049636455020	259.757203495028	1083.025232986747	555.371253271224	330.206206761241	1078.578815861621	485.876553445226	341.007736135053	1048.178019635655	415.174325949891	331.613572598530	954.474983140878	304.905781938648	280.126880441505	996.354191300612	192.268450612214	354.417759748874	1175.960105675119	450.740034113415	562.808994447392	1057.157074905578	400.313816849416	619.571168905020	1057.415136601950	288.506923639985	574.805761997501	866.635667333749	209.227499834999	543.749196403530	1038.560485369445	161.047879153262	587.838419229549	927.053864490333	148.377600248823	614.819206367977	1108.784451803262	49.622334872856	606.995726497855	861.112544205135	39.556499905128	395.447562457223	935.695499505598	36.349155917884	315.085813499945	1019.198275558261	96.359482249088	342.872566395974	1147.903392375667	40.887266129406	314.584957183890	1072.512015262738	1111.165079878174	102.165244332720	1277.503403857210	951.115512581868	130.519247226045	1007.701603454372	1091.415019392477	707.682851646390	1163.016143528351	883.649374567105	689.000488911331	
107	26.794142857143	840.385926251819	1017.692632713137	425.482839310518	1050.170283531773	1442.090081871589	261.030373779980	1140.667636923448	1366.648982277466	428.246908049674	1045.923562249758	1442.018752415457	596.547916361399	1040.265814683457	1499.847993758220	416.539424945284	1055.624625765406	952.872713032938	561.453917240962	1067.221103969969	965.167894557912	287.141035924936	1150.494065610998	801.195807849693	533.461725359014	1124.344646741741	677.671381157498	607.635799761321	1217.930988331000	646.100912432382	529.313947243614	1249.889157347239	536.796003748962	554.572510385775	1099.545824009357	747.195698855256	323.816568328451	1004.785891046995	636.952472054478	259.443300413923	1077.424265402614	554.418749541618	330.124876908798	1072.021028037620	485.078639642643	340.951383938449	1041.599681434301	414.648986499633	331.476900527286	947.532921028601	304.767050192742	279.919393911094	988.652352600146	192.002877125418	354.377454657713	1183.681020230645	453.555342844360	563.348660209448	1068.279114613566	396.993329024613	620.899881025582	1074.157043360950	285.296198960093	576.090901971124	887.816818724458	195.760832303151	546.042305759407	1062.330268015586	157.246305869978	589.748438644361	951.681732646965	138.589958169480	616.984608597921	1138.404793976313	49.767119837418	608.895505346106	852.903441929752	39.587363922842	395.378887204406	927.490573812641	36.328992857424	315.064278801741	1011.015003521282	96.305728750014	342.857692540945	1139.704139103156	40.818711783787	314.565081475110	1081.277128979748	1113.378509147939	100.231630476329	1294.330268632958	965.447527755122	132.336027604648	1002.271862688771	1091.367205088734	707.893985948422	1138.240129800063	869.543556906460	694.936669334639	
108	26.805785714286	839.154526845872	1017.544687675168	424.824633550546	1050.414261956592	1441.972063410440	260.925473652949	1139.792639874891	1366.361531314836	428.634435831652	1044.244253101070	1441.773224510732	596.436647186509	1039.577788750677	1499.698560023064	416.394963830882	1054.241225709015	953.111176456874	561.805404980758	1066.090037459112	964.730177082783	287.413364274161	1149.973995896749	803.116872760943	533.773449104400	1124.985748739740	679.188460676657	607.919006756597	1218.761073048670	648.551299103938	529.657504802561	1252.623244664917	541.074294753986	554.959549689812	1096.424091227936	746.032725964432	324.194841879020	1000.566915582479	636.847800209430	259.182788827658	1071.758210602153	553.450000203936	330.042909711168	1065.394327444551	484.293626382007	340.901033022388	1034.974494056714	414.138196168163	331.356008547238	940.552514639303	304.628965499011	279.739305260771	980.946163993004	191.746831608113	354.345763826056	1190.469558393304	455.901667627274	564.019828300817	1079.161652350482	393.091465652835	622.632321220818	1090.880595881824	281.846846331796	577.673246081563	909.885679307649	181.752838999651	548.919899100124	1086.479561858567	153.506295302770	591.908895655173	977.207377829007	128.732311737420	619.678658825378	1168.490247616295	50.646623153370	611.065841180689	844.709914124612	39.624499746542	395.306926917535	919.283899180286	36.311301694441	315.050622551904	1002.834207042647	96.253388091165	342.851719943770	1131.499000406996	40.752955438852	314.551243310174	1089.831082558318	1115.790654216019	98.531248471853	1309.938410352506	980.120807694527	134.533279185083	996.771406273884	1091.416520815322	708.295990433796	1112.889727174817	857.765150090249	700.733596350377	
109	26.817428571429	838.072538935049	1017.367615983764	424.374165376946	1050.573120592161	1441.803486866809	260.970957983870	1139.015061173203	1366.007687086620	429.061273113352	1042.842676633085	1441.431700000476	596.473272983986	1038.979788174586	1499.476420167181	416.409572919140	1053.062236740307	953.206005563501	562.175718787675	1064.969549541285	964.230443755763	287.717458578804	1149.152482087385	804.253180675311	534.165107652613	1124.779254238799	680.006231739152	608.335012532617	1218.653892429930	649.999292760631	530.173846907938	1254.108605697490	544.545533664502	555.416228765446	1093.349623972903	744.841780424413	324.561728232090	996.287362754953	636.738986632104	258.978602232495	1066.014765874766	552.467603277108	329.965982065225	1058.690671570732	483.528851701713	340.857097795743	1028.288399928319	413.650733118229	331.251219015373	933.518769315709	304.497288786058	279.589407573393	973.232565554013	191.506030293417	354.322691695493	1196.276182220174	457.745831459825	564.788412078122	1089.747347739611	388.698586072466	624.720723662814	1107.446339921953	278.283888165566	579.490494502716	932.722224268290	167.468273360361	552.296351873532	1110.800826063854	150.016740973434	594.230585332317	1003.448674822502	119.047900910120	622.801512721428	1198.736856256265	52.461032934387	613.374092506304	836.528488721506	39.669330508193	395.234461532624	911.075457006212	36.297519300412	315.044653048436	994.655408625008	96.203729027874	342.853580825617	1123.286865755927	40.690056940904	314.544170675655	1098.147789564372	1118.385376344771	97.058395764840	1324.298942365625	994.990904259743	137.071031999646	991.040682212129	1091.618884002571	708.826425426551	1087.413932155862	848.405026982179	706.249689895671	
110	26.829071428571	837.166864662915	1017.151519393980	424.147344697413	1050.641818418366	1441.580556983372	261.168379651594	1138.343136135076	1365.584988711516	429.523617896916	1041.742081837416	1440.997641704168	596.655636985739	1038.475498944907	1499.179835491583	416.582895157749	1052.108567864747	953.144214953199	562.566051066128	1063.926286634678	963.702031291505	288.027837462254	1148.039436801392	804.559525263125	534.629380364011	1123.746010146621	680.090932326391	608.905757935638	1217.624138483855	650.404016017177	530.858088748772	1254.377826983439	547.147489724232	555.919850728609	1090.312829278444	743.615428098574	324.915394628743	991.935319405672	636.627136363298	258.831805441483	1060.184168359065	551.472915763699	329.896701376290	1051.905307750779	482.790152505809	340.815076095929	1021.528208728200	413.193608160195	331.159535845527	926.416256607963	304.377696959293	279.469742782130	965.504999473026	191.284526170553	354.306725093863	1201.070282197073	459.063019420315	565.630671845033	1099.946553461028	383.912642907559	627.095952794637	1123.678694285577	274.719364089983	581.468657913827	956.120659594179	153.175820930636	556.033396210736	1135.026876145694	146.932138992537	596.618517526588	1030.128412812601	109.751305457481	626.211028433580	1228.772249718876	55.327085741389	615.696118562276	828.354088358184	39.722008230011	395.166043610834	902.865030546696	36.288451002647	315.046041069207	986.477382504979	96.157201623053	342.861508986831	1115.067058585528	40.629956634058	314.544385845612	1106.191893429735	1121.143249901130	95.804063525110	1337.396066230220	1009.914226946863	139.907541594413	984.953803413370	1092.034865625046	709.445658922391	1062.257487891531	841.454467490549	711.336955825608	
